<svg width="16" height="16" viewBox="0 0 16 16" fill="none" xmlns="http://www.w3.org/2000/svg">
<path d="M5.19267 3.60233C5.55293 3.59564 5.91269 3.63258 6.26408 3.71233C6.55994 3.77693 6.84084 3.89713 7.09185 4.06654C7.32367 4.235 7.50709 4.46148 7.62371 4.72325C7.75773 5.04514 7.82238 5.39166 7.81346 5.74022C7.82868 6.12294 7.73093 6.50168 7.5324 6.82923C7.32355 7.1386 7.03485 7.38568 6.69694 7.54425C7.15551 7.66787 7.55492 7.95105 7.82336 8.34286C8.08105 8.75801 8.21057 9.23994 8.19571 9.72833C8.20421 10.1177 8.1237 10.5039 7.96031 10.8575C7.80928 11.1659 7.58814 11.4347 7.3146 11.6424C7.03297 11.8477 6.71605 11.9997 6.37958 12.0906C6.03066 12.1871 5.6702 12.2356 5.30817 12.2347H1.33325V3.60233H5.19267ZM4.96331 7.09379C5.24638 7.10546 5.52503 7.02072 5.75367 6.85344C5.86318 6.75595 5.94836 6.63421 6.00241 6.49793C6.05647 6.36165 6.07789 6.21461 6.06498 6.06857C6.07231 5.89801 6.03834 5.72819 5.96598 5.57356C5.90459 5.45045 5.80914 5.34755 5.69097 5.27711C5.57129 5.19957 5.43682 5.14769 5.29607 5.12476C5.14335 5.09517 4.98794 5.08172 4.83241 5.08461H3.13398V7.10149H4.96331V7.09379ZM5.06231 10.7689C5.2335 10.7713 5.40434 10.7528 5.57107 10.7139C5.72344 10.6803 5.86795 10.6178 5.99678 10.5297C6.12298 10.4417 6.22495 10.3233 6.29323 10.1854C6.37241 10.0096 6.40879 9.81751 6.39938 9.62493C6.41655 9.44943 6.39331 9.27233 6.33143 9.10721C6.26956 8.94208 6.1707 8.79332 6.04243 8.67232C5.77056 8.47207 5.43739 8.37288 5.10026 8.39181H3.13398V10.7689H5.06231Z" fill="#ADADAD"/>
<path d="M10.7604 10.7371C10.9017 10.8681 11.0682 10.969 11.2498 11.0337C11.4313 11.0983 11.6241 11.1254 11.8164 11.1133C12.1213 11.121 12.4203 11.0282 12.6673 10.8493C12.8682 10.7186 13.0204 10.5253 13.1001 10.2993H14.5362C14.3832 10.9427 14.0095 11.5121 13.4802 11.9086C12.9724 12.2457 12.3722 12.4164 11.7631 12.397C11.3283 12.4027 10.8968 12.321 10.4942 12.1567C10.13 12.0048 9.8034 11.7752 9.53717 11.484C9.27194 11.1788 9.06818 10.8253 8.93711 10.4428C8.78998 10.0153 8.71797 9.56555 8.72426 9.11346C8.72158 8.66895 8.79601 8.22735 8.94426 7.80829C9.14343 7.21874 9.52423 6.70744 10.032 6.34776C10.5398 5.98808 11.1485 5.79851 11.7708 5.80626C12.2301 5.79665 12.6844 5.90416 13.0908 6.11866C13.4581 6.32007 13.775 6.60215 14.0175 6.94367C14.2657 7.30203 14.4436 7.70424 14.5417 8.12894C14.6493 8.58499 14.6877 9.05464 14.6556 9.52212H10.3781C10.3435 9.96132 10.4805 10.3968 10.7604 10.7371ZM12.637 7.45408C12.5173 7.33436 12.3734 7.24168 12.2148 7.18228C12.0563 7.12289 11.8869 7.09817 11.718 7.10978C11.4939 7.10123 11.2714 7.15088 11.0722 7.25388C10.9143 7.34081 10.775 7.45777 10.6619 7.59818C10.5618 7.72983 10.4872 7.87908 10.4419 8.03819C10.4012 8.1709 10.3757 8.30782 10.366 8.4463H13.0154C12.9923 8.0853 12.8608 7.73967 12.6381 7.45463L12.637 7.45408Z" fill="#ADADAD"/>
<path d="M13.3445 4.17871H10.0247V5.02737H13.3445V4.17871Z" fill="#ADADAD"/>
</svg>
<svg xmlns="http://www.w3.org/2000/svg" width="24" height="24" viewBox="0 0 24 24"><path d="M22 7h-7v-2h7v2zm1.726 10c-.442 1.297-2.029 3-5.101 3-3.074 0-5.564-1.729-5.564-5.675 0-3.91 2.325-5.92 5.466-5.92 3.082 0 4.964 1.782 5.375 4.426.078.506.109 1.188.095 2.14h-8.027c.13 3.211 3.483 3.312 4.588 2.029h3.168zm-7.686-4h4.965c-.105-1.547-1.136-2.219-2.477-2.219-1.466 0-2.277.768-2.488 2.219zm-9.574 6.988h-6.466v-14.967h6.953c5.476.081 5.58 5.444 2.72 6.906 3.461 1.26 3.577 8.061-3.207 8.061zm-3.466-8.988h3.584c2.508 0 2.906-3-.312-3h-3.272v3zm3.391 3h-3.391v3.016h3.341c3.055 0 2.868-3.016.05-3.016z"/></svg>