<?xml version="1.0" encoding="UTF-8"?><!DOCTYPE svg PUBLIC "-//W3C//DTD SVG 1.1//EN" "http://www.w3.org/Graphics/SVG/1.1/DTD/svg11.dtd"><svg xmlns="http://www.w3.org/2000/svg"><symbol id="icon-arrow-next" viewBox="0 0 22 16">
    <path d="M13.293 15.707a1 1 0 0 1-.083-1.32l.083-.094L18.585 9H1a1 1 0 0 1-.117-1.993L1 7h17.585l-5.292-5.293a1 1 0 0 1-.083-1.32l.083-.094a1 1 0 0 1 1.32-.083l.094.083 7 7 .073.082.007.008-.08-.09A1.008 1.008 0 0 1 22 7.98v.037c0 .024-.002.048-.004.071L22 8a1.008 1.008 0 0 1-.21.613 1.037 1.037 0 0 1-.083.094l-7 7a1 1 0 0 1-1.414 0z"/>
</symbol><symbol id="icon-arrow-prev" viewBox="0 0 22 16">
    <path d="M8.707.293a1 1 0 0 1 .083 1.32l-.083.094L3.415 7H21a1 1 0 0 1 .117 1.993L21 9H3.415l5.292 5.293a1 1 0 0 1 .083 1.32l-.083.094a1 1 0 0 1-1.32.083l-.094-.083-7-7-.073-.082a1.005 1.005 0 0 1-.007-.008l.08.09A1.008 1.008 0 0 1 0 8.02v-.037c0-.024.002-.048.004-.071L0 8a1.008 1.008 0 0 1 .21-.613c.028-.035.054-.066.083-.094l7-7a1 1 0 0 1 1.414 0z"/>
</symbol><symbol id="icon-facebook" viewBox="0 0 16 16">
    <path fill-rule="evenodd" clip-rule="evenodd" d="M16 8.048a8 8 0 1 0-9.25 7.9V10.36H4.719V8.048H6.75V6.285a2.822 2.822 0 0 1 3.02-3.112c.601.008 1.2.06 1.792.156v1.97h-1.008a1.155 1.155 0 0 0-1.3 1.25v1.5h2.219l-.355 2.313H9.25v5.59A8 8 0 0 0 16 8.049z"/>
</symbol><symbol id="icon-instagram" viewBox="0 0 16 16">
    <path fill-rule="evenodd" clip-rule="evenodd" d="M0 12c0 2.056 1.944 4 4 4h8c2.056 0 4-1.944 4-4V4c0-2.056-1.944-4-4-4H4C1.944 0 0 1.944 0 4v8zm2-8c0-.935 1.065-2 2-2h8c.935 0 2 1.065 2 2v8c0 .935-1.065 2-2 2H4c-.953 0-2-1.047-2-2V4zm11.105-.108a.96.96 0 1 1-1.92 0 .96.96 0 0 1 1.92 0zM8 12c-2.206 0-4-1.794-4-4s1.794-4 4-4 4 1.794 4 4-1.794 4-4 4zm0-6c-1.103 0-2 .897-2 2s.897 2 2 2 2-.897 2-2-.897-2-2-2z"/>
<!-- </symbol><symbol id="icon-youtube" viewBox="0 0 16 12">
    <path fill-rule="evenodd" clip-rule="evenodd" d="M15.8 2.8C15.6 1.5 15 .6 13.6.4 11.4 0 8 0 8 0S4.6 0 2.4.4C1 .6.3 1.5.2 2.8 0 4.1 0 6 0 6s0 1.9.2 3.2c.2 1.3.8 2.2 2.2 2.4C4.6 12 8 12 8 12s3.4 0 5.6-.4c1.4-.3 2-1.1 2.2-2.4C16 7.9 16 6 16 6s0-1.9-.2-3.2zM6 9V3l5 3-5 3z"/>
</symbol> -->
<!-- <symbol id="icon-linkedin" viewBox="0 0 17 21">
  <path fill-rule="evenodd" clip-rule="evenodd" d="M12 0C5.373 0 0 5.373 0 12s5.373 12 12 12 12-5.373 12-12S18.627 0 12 0zm-2.027 17.718H8.258V8.906h1.715v8.812h-.001zm-.856-9.396c-.573 0-.888-.388-.888-.875s.315-.875.888-.875c.573 0 .887.387.887.875s-.314.875-.887.875h-.001zm9.63 9.396h-1.717v-4.444c0-1.057-.019-2.416-1.472-2.416-1.472 0-1.696 1.149-1.696 2.33v4.53H11.67V8.906h1.639v1.24h.025c.229-.43.788-.888 1.617-.888 1.729 0 2.047 1.135 2.047 2.611v3.908z" />
</symbol> -->

<symbol id="icon-behance" viewBox="0 0 32 32">
<path d="M12.631 14.019c0.406-0.294 0.6-0.781 0.6-1.456 0-0.375-0.063-0.681-0.194-0.919-0.137-0.238-0.313-0.425-0.544-0.556-0.225-0.137-0.481-0.231-0.775-0.281-0.287-0.056-0.594-0.081-0.906-0.081h-3.294v3.737h3.563c0.625 0.006 1.144-0.144 1.55-0.444z"></path>
<path d="M13.188 17.394c-0.463-0.35-1.075-0.525-1.838-0.525h-3.831v4.406h3.756c0.35 0 0.675-0.031 0.988-0.1s0.594-0.175 0.831-0.337c0.238-0.156 0.431-0.369 0.575-0.637s0.213-0.619 0.213-1.038c0-0.825-0.231-1.413-0.694-1.769z"></path>
<path d="M29 0h-26c-1.65 0-3 1.35-3 3v26c0 1.65 1.35 3 3 3h26c1.65 0 3-1.35 3-3v-26c0-1.65-1.35-3-3-3zM20.975 8.419h6.481v1.581h-6.481v-1.581zM16.925 21.45c-0.313 0.594-0.738 1.075-1.262 1.45-0.531 0.375-1.137 0.65-1.819 0.831-0.675 0.181-1.375 0.269-2.088 0.269h-7.756v-15.994h7.537c0.762 0 1.456 0.069 2.088 0.2 0.625 0.131 1.162 0.356 1.613 0.662 0.444 0.306 0.794 0.713 1.044 1.219 0.244 0.5 0.369 1.131 0.369 1.875 0 0.806-0.181 1.475-0.55 2.012s-0.906 0.975-1.631 1.319c0.988 0.281 1.713 0.781 2.194 1.487 0.488 0.712 0.725 1.569 0.725 2.569 0.006 0.819-0.15 1.519-0.462 2.1zM29.981 18.975h-8.356c0 0.913 0.313 1.781 0.788 2.25 0.475 0.462 1.163 0.7 2.056 0.7 0.644 0 1.194-0.163 1.663-0.488 0.462-0.325 0.744-0.669 0.85-1.025h2.8c-0.45 1.394-1.131 2.387-2.063 2.988-0.919 0.6-2.044 0.9-3.35 0.9-0.913 0-1.731-0.15-2.469-0.438-0.738-0.294-1.35-0.706-1.869-1.244-0.506-0.538-0.894-1.181-1.175-1.931-0.275-0.744-0.419-1.575-0.419-2.469 0-0.869 0.144-1.675 0.425-2.425 0.288-0.75 0.688-1.4 1.212-1.938 0.525-0.544 1.15-0.975 1.875-1.294 0.725-0.313 1.525-0.469 2.413-0.469 0.981 0 1.837 0.188 2.575 0.575 0.731 0.381 1.331 0.894 1.806 1.537s0.806 1.375 1.019 2.2c0.206 0.813 0.275 1.669 0.219 2.569z"></path>
<path d="M24.269 14.494c-0.506 0-0.931 0.088-1.262 0.262s-0.6 0.387-0.806 0.637c-0.206 0.256-0.344 0.525-0.425 0.819-0.081 0.281-0.131 0.538-0.144 0.762h5.175c-0.075-0.813-0.356-1.412-0.731-1.831-0.387-0.425-1.025-0.65-1.806-0.65z"></path>
</symbol>

<symbol id="icon-linkedin" viewBox="0 0 24 28">
<path d="M3.703 22.094h3.609v-10.844h-3.609v10.844zM7.547 7.906c-0.016-1.062-0.781-1.875-2.016-1.875s-2.047 0.812-2.047 1.875c0 1.031 0.781 1.875 2 1.875h0.016c1.266 0 2.047-0.844 2.047-1.875zM16.688 22.094h3.609v-6.219c0-3.328-1.781-4.875-4.156-4.875-1.937 0-2.797 1.078-3.266 1.828h0.031v-1.578h-3.609s0.047 1.016 0 10.844v0h3.609v-6.062c0-0.313 0.016-0.641 0.109-0.875 0.266-0.641 0.859-1.313 1.859-1.313 1.297 0 1.813 0.984 1.813 2.453v5.797zM24 6.5v15c0 2.484-2.016 4.5-4.5 4.5h-15c-2.484 0-4.5-2.016-4.5-4.5v-15c0-2.484 2.016-4.5 4.5-4.5h15c2.484 0 4.5 2.016 4.5 4.5z"></path>
</symbol>
</svg>


